@startuml

title 基于GitHub的学生综合实验管理平台--类图

class users {
<b>user_id</b> (用户ID)
name (用户真实姓名)
github_username (用户GitHub账号)
update_date (用户GitHub账号修改日期)
password (用户密码)
contact (联系方式)
disable (用户是否禁用)
}

class teachers {
<b>teacher_id</b> (老师工号)
teacher_name (老师姓名)
department (老师所属部门)
}

class students {
<b>student_id</b> (学号)
student_name (学生姓名)
class (班级)
result_sum (成绩汇总)
web_sum (网站正确与否汇总)
}

users <|- students
users <|-- teachers

class timetable {
<b>course_name</b> (课程名)
<b>semester</b> (学期)
course_number (上课人数)
s_number (已选人数)
select_taacher (选课老师)
Is_select (是否能选)
course_id (课程代码)
course_credit (课程学分)
test1 (实验一)
test2 (实验二)
test3 (实验三)
test4 (实验四)
test5 (实验五)
}

class schedules {
<b>schedules_id</b> (已选课表自增主键)
student_id (学号)
student_name (学生姓名)
s_course (选课记录)
}

class grades {
<b>grades_id</b> (成绩表自增主键)
course (课程)
test_id (实验编号)
student_id (学号)
semester (学期)
student_name (学生名)
teacher_name (评分人)
grade1 (评分项1)
grade2 (评分项2)
grade3 (评分项3)
grade4 (评分项4)
memo (评语)
update_date (评改日期)
}


timetable "1" -- "n"  grades
schedules "1" -- "1"  grades
students "1" -- "n"  schedules
timetable "1" -- "n"  schedules

@enduml